<svg enable-background="new 0 0 52 52" height="52" viewBox="0 0 52 52" width="52" xmlns="http://www.w3.org/2000/svg"><g fill="#fff"><path d="m16 27.5v-3c0-.8-.7-1.5-1.5-1.5h-11c-.8 0-1.5.7-1.5 1.5v3c0 .8.7 1.5 1.5 1.5h11c.8 0 1.5-.7 1.5-1.5z"/><path d="m17.9 32c-.6-.6-1.5-.6-2.1 0l-7.8 7.8c-.6.6-.6 1.5 0 2.1l2.1 2.1c.6.6 1.5.6 2.1 0l7.8-7.8c.6-.6.6-1.5 0-2.1z"/><path d="m34.1 20c.6.6 1.5.6 2.1 0l7.8-7.8c.6-.6.6-1.5 0-2.1l-2.1-2.1c-.6-.6-1.5-.6-2.1 0l-7.8 7.7c-.6.6-.6 1.5 0 2.1z"/><path d="m12.2 8c-.6-.6-1.5-.6-2.1 0l-2.1 2.1c-.6.6-.6 1.5 0 2.1l7.8 7.8c.6.6 1.5.6 2.1 0l2.1-2.1c.6-.6.6-1.5 0-2.1z"/><path d="m36.3 32c-.6-.6-1.5-.6-2.1 0l-2.2 2.1c-.6.6-.6 1.5 0 2.1l7.8 7.8c.6.6 1.5.6 2.1 0l2.1-2.1c.6-.6.6-1.5 0-2.1z"/><path d="m27.5 36h-3c-.8 0-1.5.7-1.5 1.5v11c0 .8.7 1.5 1.5 1.5h3c.8 0 1.5-.7 1.5-1.5v-11c0-.8-.7-1.5-1.5-1.5z"/><path d="m48.5 23h-11c-.8 0-1.5.7-1.5 1.5v3c0 .8.7 1.5 1.5 1.5h11c.8 0 1.5-.7 1.5-1.5v-3c0-.8-.7-1.5-1.5-1.5z"/><path d="m27.5 2h-3c-.8 0-1.5.7-1.5 1.5v11c0 .8.7 1.5 1.5 1.5h3c.8 0 1.5-.7 1.5-1.5v-11c0-.8-.7-1.5-1.5-1.5z"/></g></svg>